HIERARCHY
ROOT joint_0
{
	OFFSET 0.000000 0.000000 0.000000
	CHANNELS 6 Xposition Yposition Zposition Zrotation Yrotation Xrotation 
	JOINT joint_1
	{
		OFFSET 1.363060 -1.794630 0.839290
		CHANNELS 3 Zrotation Yrotation Xrotation
		JOINT joint_2
		{
			OFFSET 2.448110 -6.726130 0.000000
			CHANNELS 3 Zrotation Yrotation Xrotation
			JOINT joint_3
			{
				OFFSET 2.562200 -7.039590 0.000000
				CHANNELS 3 Zrotation Yrotation Xrotation
				JOINT joint_4
				{
					OFFSET 0.157640 -0.433110 2.322550
					CHANNELS 3 Zrotation Yrotation Xrotation
					End Site
					{
						OFFSET 0.000000 0.000000 0.000000
					}
				}
			}
		}
	}
	JOINT joint_5
	{
		OFFSET -1.305520 -1.794630 0.839290
		CHANNELS 3 Zrotation Yrotation Xrotation
		JOINT joint_6
		{
			OFFSET -2.542530 -6.985550 0.000000
			CHANNELS 3 Zrotation Yrotation Xrotation
			JOINT joint_7
			{
				OFFSET -2.568260 -7.056230 0.000000
				CHANNELS 3 Zrotation Yrotation Xrotation
				JOINT joint_8
				{
					OFFSET -0.164730 -0.452590 2.363150
					CHANNELS 3 Zrotation Yrotation Xrotation
					End Site
					{
						OFFSET 0.000000 0.000000 0.000000
					}
				}
			}
		}
	}
	JOINT joint_9
	{
		OFFSET 0.028270 2.035590 -0.193380
		CHANNELS 3 Zrotation Yrotation Xrotation
		JOINT joint_10
		{
			OFFSET 0.056720 2.048850 -0.042750
			CHANNELS 3 Zrotation Yrotation Xrotation
			JOINT joint_11
			{
				OFFSET -0.054170 1.746240 0.172020
				CHANNELS 3 Zrotation Yrotation Xrotation
				JOINT joint_12
				{
					OFFSET 0.104070 1.761360 -0.123970
					CHANNELS 3 Zrotation Yrotation Xrotation
					End Site
					{
						OFFSET 0.000000 0.000000 0.000000
					}
				}
			}
			JOINT joint_13
			{
				OFFSET 3.362410 1.200890 -0.311210
				CHANNELS 3 Zrotation Yrotation Xrotation
				JOINT joint_14
				{
					OFFSET 4.983000 -0.000000 -0.000000
					CHANNELS 3 Zrotation Yrotation Xrotation
					JOINT joint_15
					{
						OFFSET 3.483560 -0.000000 -0.000000
						CHANNELS 3 Zrotation Yrotation Xrotation
						JOINT joint_16
						{
							OFFSET 0.000000 0.000000 0.000000
							CHANNELS 3 Zrotation Yrotation Xrotation
							End Site
							{
								OFFSET 0.000000 0.000000 0.000000
							}
						}
					}
				}
			}
			JOINT joint_17
			{
				OFFSET -3.136600 1.374050 -0.404650
				CHANNELS 3 Zrotation Yrotation Xrotation
				JOINT joint_18
				{
					OFFSET -5.241900 -0.000000 -0.000000
					CHANNELS 3 Zrotation Yrotation Xrotation
					JOINT joint_19
					{
						OFFSET -3.444170 -0.000000 -0.000000
						CHANNELS 3 Zrotation Yrotation Xrotation
						JOINT joint_20
						{
							OFFSET 0.000000 0.000000 0.000000
							CHANNELS 3 Zrotation Yrotation Xrotation
							End Site
							{
								OFFSET 0.000000 0.000000 0.000000
							}
						}
					}
				}
			}
		}
	}
}
MOTION
Frames: 13
Frame Time: 0.031667
-9.504039 13.213994 1.398569 -12.802456 78.930977 -3.364663 2.438356 13.022492 -44.648947 -8.011730 10.493363 38.720998 -8.658084 14.959607 -1.312616 0.826328 5.975708 16.664910 -6.863834 -14.106690 -18.210589 3.006036 -19.733506 71.412154 11.996358 -1.032793 -8.665463 -7.201611 -15.733166 40.331369 3.021868 -6.244531 -7.941110 -4.131732 -3.133928 -7.966370 1.427361 1.657379 9.530593 2.350767 2.277904 -29.616289 -45.030558 -60.703320 -19.011657 17.193127 -34.540764 -9.038421 14.228227 -2.601928 1.917762 -6.709733 -0.026505 0.000399 51.458662 60.130438 16.265941 -22.904017 24.132439 -24.740369 -12.084188 -4.467768 0.270528 6.883090 -0.035366 -0.036806 
-9.044865 13.234505 1.380784 -15.252708 78.662460 -5.019760 1.173836 14.130657 -45.630655 -7.605076 11.535508 41.428129 -8.611179 14.470443 -2.100991 0.667023 5.382418 14.958671 -6.461605 -13.972236 -17.766137 1.933067 -19.416612 72.098601 10.642302 -4.431493 -9.822791 -6.755144 -15.226401 39.265103 3.017087 -5.733305 -7.702094 -3.683788 -3.379071 -7.716909 1.228435 1.530338 9.006827 2.919827 2.460476 -29.101897 -49.897493 -61.234017 -12.512953 16.958159 -33.313134 -9.478122 13.444848 -1.904254 1.729167 -6.720442 -0.024441 0.002788 53.656692 58.250832 16.943156 -23.728255 24.588963 -26.119025 -12.403910 -4.537849 0.353654 6.895037 -0.034186 -0.034700 
-8.582102 13.253814 1.375227 -16.009581 78.725639 -5.274573 0.751419 13.648960 -47.438765 -7.595065 12.043502 45.068749 -8.290976 13.185688 -3.563089 0.559258 4.929810 13.659336 -6.166074 -14.271589 -18.293110 0.740697 -19.498121 73.107347 10.862010 -5.510436 -10.497289 -6.177675 -14.549407 38.254877 3.063204 -5.246265 -7.150673 -3.483765 -3.776725 -7.843133 1.277018 1.577777 8.625337 3.600608 2.792517 -28.627981 -53.245478 -61.683998 -6.857134 17.610560 -32.371131 -10.941693 13.472215 -0.993291 1.840455 -6.731258 -0.021506 0.005870 56.163331 56.195454 19.890129 -24.642832 25.025858 -27.757618 -12.264439 -4.318945 0.402061 6.904759 -0.031586 -0.030830 
-8.108243 13.300405 1.390545 -14.743326 79.047958 -3.570675 0.334220 13.526620 -48.041552 -7.475392 12.823944 47.461450 -7.610129 12.686728 -4.434569 0.491060 4.617674 12.766080 -5.720634 -14.313031 -18.814313 0.049995 -19.626869 73.656109 10.277000 -5.769369 -10.545057 -5.453211 -13.709498 36.647184 2.931564 -4.519646 -6.705054 -3.183070 -4.080986 -7.936389 1.293914 1.602372 8.810813 4.660505 3.119630 -28.271090 -57.063646 -60.983522 -1.682942 17.461805 -31.106570 -11.827263 13.559326 -0.698856 1.720768 -6.744348 -0.019009 0.009236 58.274288 54.049266 21.717427 -24.957846 24.946839 -28.451008 -12.709512 -4.756299 0.475326 6.918014 -0.029592 -0.027600 
-7.625435 13.354099 1.398971 -12.545284 79.557106 -1.045868 -0.386973 13.393953 -48.181770 -8.095105 13.772328 50.034747 -7.529494 10.423193 -6.467326 0.425314 4.290378 11.834089 -5.178090 -13.546007 -18.751483 -0.071996 -19.754766 74.360941 9.756209 -5.868014 -11.035314 -4.714628 -12.753664 34.880298 3.077276 -4.555828 -6.859832 -2.544537 -4.243665 -7.968336 1.243448 1.527647 8.580162 5.728023 3.390202 -27.550768 -60.487877 -59.566089 2.699544 17.735359 -29.703401 -12.672351 14.709010 -0.409327 1.648685 -6.761019 -0.015378 0.013172 59.732166 52.050979 23.586746 -26.033518 25.127816 -30.747816 -13.251203 -5.665592 0.603645 6.930487 -0.026621 -0.023427 
-7.136471 13.432327 1.396847 -12.834898 80.075310 -0.522212 -1.505095 12.008446 -49.412398 -7.869595 14.675264 51.637449 -7.631573 9.647411 -6.452434 0.355567 3.911043 10.768815 -4.698545 -13.129233 -19.366697 -0.947431 -19.927047 75.869492 8.383898 -5.354999 -10.951094 -4.191860 -12.098175 33.605463 2.818304 -3.871818 -6.257435 -1.897475 -4.188966 -7.860117 1.076633 1.465168 8.141154 6.675063 3.701644 -26.617487 -63.805581 -58.683000 6.962774 18.478019 -28.932119 -13.967125 14.682231 0.029057 1.717894 -6.777242 -0.011119 0.015773 61.142085 50.656368 25.383438 -26.589215 25.479014 -32.140434 -13.316619 -5.770411 0.665597 6.939559 -0.022540 -0.018792 
-6.670526 13.501952 1.377144 -15.472880 80.590347 -2.654320 -3.093337 11.449133 -50.367314 -7.536160 15.360365 53.593465 -7.337183 9.108334 -6.672886 0.389440 4.110059 11.275067 -3.899806 -11.863922 -19.562824 -0.585736 -20.465572 76.557357 8.397754 -3.135962 -9.853786 -3.911909 -11.745144 33.228351 2.870874 -4.043348 -5.885201 -1.697836 -4.074857 -7.852872 1.009093 1.404666 7.505869 7.999466 3.882759 -25.685226 -67.560449 -58.060039 10.962740 18.706599 -27.956681 -15.059508 14.554554 -0.077975 1.705995 -6.795547 -0.007296 0.017610 63.252874 48.285929 27.158928 -27.788733 26.036803 -34.293686 -13.305899 -5.959136 0.559620 6.952034 -0.019354 -0.015079 
-6.211817 13.555721 1.369746 -18.887506 81.359276 -5.776923 -3.794086 10.148667 -50.504675 -7.235072 17.092850 54.712367 -6.510844 9.171980 -7.297657 0.473963 4.478084 12.278933 -2.984316 -10.840622 -20.083129 -0.295338 -21.501737 77.510487 13.075252 -1.121042 3.472559 -3.868127 -11.672383 33.867711 2.229862 -3.077319 -5.292722 -2.026937 -3.189656 -7.456631 0.810388 1.316304 6.666405 9.168552 3.771134 -24.469011 -70.391155 -57.544112 15.147762 18.986600 -27.369620 -15.858513 14.088227 0.226212 0.213735 -6.809246 -0.001699 0.021728 66.179075 47.266016 31.126560 -29.106724 26.075757 -36.838062 -13.882339 -5.660524 0.451089 6.958926 -0.014494 -0.009484 
-5.754084 13.606577 1.388607 -22.488663 82.385277 -9.056768 -4.530074 9.726493 -50.141181 -8.171897 16.200839 56.159903 -5.617838 8.177097 -6.429977 0.581305 4.910099 13.441953 -2.385574 -9.696456 -20.922145 0.523573 -21.694234 78.199637 10.951019 -6.884239 4.107610 -3.996812 -11.830489 34.996920 2.486522 -2.872687 -5.401503 -2.483918 -2.786725 -7.399025 0.778431 1.321909 6.441440 10.518563 3.558263 -23.435875 -74.860912 -55.533516 22.055210 20.159688 -26.589505 -17.305786 14.678319 0.288750 -1.208905 -6.836729 0.002246 0.026012 67.323363 45.849701 32.596744 -28.565319 26.326124 -37.342001 -13.992734 -5.151275 0.580987 6.976457 -0.011419 -0.004899 
-5.301321 13.663393 1.430833 -25.437986 83.286415 -11.655134 -5.885945 8.201522 -49.267774 -9.391085 18.266871 55.899544 -4.062324 7.332573 -6.405633 0.770437 5.575428 15.337005 -1.683454 -8.508965 -21.976438 -0.174120 -21.813965 79.221602 8.181427 -10.525038 1.753090 -4.099123 -11.970612 35.817664 2.333632 -2.158552 -5.679276 -3.151150 -2.098467 -6.650740 0.281800 1.203033 6.441279 12.043224 3.417212 -22.807882 -77.434781 -57.073664 24.863751 20.795838 -25.167388 -18.165909 12.129063 -1.312273 -1.540449 -6.846366 0.006470 0.030716 67.546169 47.084314 31.855791 -28.803603 25.492896 -38.063221 -14.515331 -5.619306 0.420389 6.980931 -0.008403 -0.000852 
-4.854264 13.730706 1.477207 -27.362179 84.278252 -13.071217 -5.798104 9.511241 -48.144959 -9.433809 18.188921 57.726111 -2.360038 8.974996 -3.125821 1.000761 6.271304 17.206867 -1.160587 -8.185385 -25.066501 0.742500 -23.397887 81.987633 10.074938 -9.911978 1.710957 -4.085713 -11.939717 35.979695 2.191195 -0.951945 -5.249522 -3.198398 -1.709826 -5.929087 0.127028 0.880179 5.672149 13.651774 3.150064 -22.146058 -75.633244 -55.744426 24.705869 22.008808 -25.293070 -19.134234 12.480103 -0.068657 -1.773900 -6.857923 0.010690 0.035570 67.829231 48.204171 32.708467 -27.829011 23.282839 -38.137528 -15.306700 -5.540774 0.633480 6.987425 -0.006691 0.002073 
-4.434174 13.791907 1.522553 -32.812950 85.215744 -18.129774 -7.011368 7.351364 -48.953245 -10.577377 18.931722 56.572189 -3.116212 9.311973 -1.902518 1.237972 6.933396 18.973102 -0.125274 -8.270045 -25.252285 -2.148436 -21.316966 82.230150 12.226147 -6.922051 -5.239663 -4.042194 -11.864785 35.815298 1.089579 -0.228031 -5.073313 -5.190190 -2.405786 -8.261320 -0.167808 0.809587 4.653359 15.185653 2.745185 -21.227503 -79.342940 -56.422414 31.990604 22.044736 -25.181036 -18.877663 10.910791 0.455858 -2.550371 -6.864533 0.011532 0.037208 68.801907 49.333492 32.666933 -29.365292 24.020063 -40.674128 -16.752060 -5.914372 1.047656 6.997878 -0.007546 0.002222 
-4.034414 13.848228 1.565736 -39.149872 85.516022 -24.179087 -7.094032 5.837812 -48.081786 -11.251919 19.421359 59.645449 -3.892443 8.633845 -1.531580 1.427651 7.382536 20.245370 -0.050223 -6.850087 -25.289879 -3.468672 -22.651263 82.369946 10.774818 -8.868791 -5.670870 -3.952134 -11.717555 35.407321 0.675671 -0.140272 -5.244716 -3.473907 -2.052315 -5.924389 -0.530760 0.773719 4.458128 17.010968 2.396897 -20.344759 -78.483754 -57.760093 29.654072 22.565310 -23.998162 -20.252539 10.583990 1.165120 -2.146893 -6.824452 0.012331 0.039476 70.531636 51.432796 37.617700 -28.621151 23.473320 -39.541048 -16.871865 -5.619671 0.758112 6.968748 -0.007714 0.003207 
